<?xml version="1.0" standalone="no"?><!DOCTYPE svg PUBLIC "-//W3C//DTD SVG 1.1//EN" "http://www.w3.org/Graphics/SVG/1.1/DTD/svg11.dtd"><svg t="1663732214824" class="icon" viewBox="0 0 1024 1024" version="1.1" xmlns="http://www.w3.org/2000/svg" p-id="18212" xmlns:xlink="http://www.w3.org/1999/xlink" width="200" height="200"><path d="M732.16 225.792h154.112v77.312H732.16V225.792z" fill="#207245" p-id="18213"></path><path d="M996.352 765.952c0-190.976-0.512-382.464 0-573.44-0.512-18.944 0.512-39.424-10.752-55.808-16.384-11.264-36.864-9.728-55.296-10.752-110.08 0.512-220.672 0.512-330.752 0.512V38.4h-65.536c-168.96 29.696-337.92 58.88-507.392 88.064v771.072c167.936 29.184 336.384 57.856 504.32 88.064h68.608v-99.328c114.176 0 228.352 0.512 342.528 0 18.432-1.024 46.08-1.536 50.176-24.064 7.168-31.744 3.584-64 4.096-96.256zM351.744 684.544c-18.944-46.08-41.472-90.112-54.784-138.24-14.848 44.544-36.352 87.04-53.76 130.56-24.064-0.512-48.128-1.536-72.192-2.56C199.168 619.008 226.816 563.2 256 507.904c-24.576-56.832-52.224-112.128-77.312-168.96 24.064-1.536 48.64-3.072 72.704-4.096 16.384 43.008 34.304 85.504 48.128 129.536 14.336-46.592 36.352-90.624 54.784-136.192 25.088-1.536 49.664-3.072 74.752-4.608C399.872 384 370.176 443.904 339.968 504.32c30.208 61.44 61.44 122.88 91.648 184.832-27.136-1.024-53.248-3.072-79.872-4.608z m611.328 168.96h-363.52v-66.048h88.064v-77.312h-88.064v-44.032h88.064V588.8h-88.064v-44.032h88.064v-76.8h-88.064v-44.032h88.064V346.624h-88.064v-44.032h88.064v-76.8h-88.064V159.744h363.52v693.76z" fill="#207245" p-id="18214"></path><path d="M732.16 346.624h154.112v77.312H732.16V346.624z m0 121.344h154.112v77.312H732.16V467.968z m0 121.344h154.112v77.312H732.16v-77.312z m0 120.832h154.112v77.312H732.16v-77.312z" fill="#207245" p-id="18215"></path></svg>