<?xml version="1.0" standalone="no"?><!DOCTYPE svg PUBLIC "-//W3C//DTD SVG 1.1//EN" "http://www.w3.org/Graphics/SVG/1.1/DTD/svg11.dtd"><svg t="1663732233676" class="icon" viewBox="0 0 1024 1024" version="1.1" xmlns="http://www.w3.org/2000/svg" p-id="18621" xmlns:xlink="http://www.w3.org/1999/xlink" width="200" height="200"><path d="M939.008 37.888h-855.04C38.912 37.888 2.56 71.168 2.56 116.224v785.408c0 45.056 36.864 81.92 81.408 81.92h861.696c45.056 0 78.336-36.864 78.336-81.92V116.224c0-45.056-40.448-78.336-84.992-78.336zM331.264 154.112c69.12 0 125.44 55.808 125.44 125.44C456.704 348.16 400.384 404.48 331.264 404.48S206.336 348.16 206.336 279.552s55.808-125.44 124.928-125.44zM139.264 866.816c-8.704 0-17.92-3.072-25.088-9.216-16.384-13.824-17.92-38.4-4.096-54.272L286.72 536.576c13.312-15.36 35.84-17.92 52.224-5.632l156.16 116.224 279.552-317.952c13.312-16.384 83.456-94.72 124.416-6.144v544.256c0-1.024-759.296-0.512-759.808-0.512z" fill="#FF861A" p-id="18622"></path></svg>