<?xml version="1.0" standalone="no"?><!DOCTYPE svg PUBLIC "-//W3C//DTD SVG 1.1//EN" "http://www.w3.org/Graphics/SVG/1.1/DTD/svg11.dtd"><svg t="1663732253676" class="icon" viewBox="0 0 1024 1024" version="1.1" xmlns="http://www.w3.org/2000/svg" p-id="18892" xmlns:xlink="http://www.w3.org/1999/xlink" width="200" height="200"><path d="M960 178.133333H609.066667v59.733334h270.933333v37.333333H609.066667v61.866667h270.933333v37.333333H609.066667v59.733333h270.933333v37.333334H609.066667v60.8h270.933333v37.333333H609.066667v59.733333h270.933333v37.333334H609.066667v60.8h270.933333v37.333333H609.066667v78.933333h350.933333zM64 157.968v703.693867L568.533333 960V64L64 157.968z m342.455467 517.856l-71.824-7.5456-44.912-192.791467-41.52 183.710934-58.446934-6.141867-65.338666-264.5632 52.5632-5.5232 41.245866 177.472 40.349867-186.0448 64.498133-6.7776 45.533867 197.732267 55.941333-208.3936 83.5744-8.781867-101.665066 327.648z" fill="#4c83e5" p-id="18893"></path></svg>