<?xml version="1.0" standalone="no"?><!DOCTYPE svg PUBLIC "-//W3C//DTD SVG 1.1//EN" "http://www.w3.org/Graphics/SVG/1.1/DTD/svg11.dtd"><svg t="1663732240940" class="icon" viewBox="0 0 1024 1024" version="1.1" xmlns="http://www.w3.org/2000/svg" p-id="18756" xmlns:xlink="http://www.w3.org/1999/xlink" width="200" height="200"><path d="M651.776 0H168.448c-41.472 0-75.264 33.792-75.264 75.264v873.472c0 41.472 33.792 75.264 75.264 75.264h687.104c41.472 0 75.264-33.792 75.264-75.264V279.04L651.776 0z m-86.016 761.856c-4.096 33.792-33.792 55.808-70.656 50.176-36.864-6.144-58.368-33.792-54.272-67.584 4.096-33.792 34.816-54.272 70.656-48.64 36.864 4.608 58.368 31.744 54.272 66.048z m-18.944-122.368H459.264c-14.848-109.056 105.984-134.144 105.984-202.24 0-36.864-23.04-58.368-61.952-58.368-32.768 0-58.88 14.336-84.992 42.496l-55.296-51.2c37.888-43.52 89.088-71.68 151.552-71.68 84.992 0 146.432 44.032 146.432 130.048 0 102.4-124.416 114.688-114.176 210.944z" fill="#CCCCCC" p-id="18757"></path><path d="M651.776 203.776c0 41.472 33.792 75.264 75.264 75.264h203.776L651.776 0v203.776z" fill="#E5E5E5" p-id="18758"></path></svg>