<?xml version="1.0" standalone="no"?><!DOCTYPE svg PUBLIC "-//W3C//DTD SVG 1.1//EN" "http://www.w3.org/Graphics/SVG/1.1/DTD/svg11.dtd"><svg t="1663732205773" class="icon" viewBox="0 0 1024 1024" version="1.1" xmlns="http://www.w3.org/2000/svg" p-id="18075" xmlns:xlink="http://www.w3.org/1999/xlink" width="200" height="200"><path d="M686.592 224.768c82.944 6.144 148.992 73.216 153.088 156.672-51.2 0.512-101.888 0-153.088 0V224.768z" fill="#D24625" p-id="18076"></path><path d="M1022.976 153.088c0.512-3.584 0.512-7.168 0-10.24-2.56-22.528-23.04-38.4-45.056-35.84-124.416-1.536-248.832 0.512-373.248 0V0h-66.048C358.912 31.232 179.712 63.488 0 95.232v833.024c177.664 31.744 355.328 61.952 532.48 94.72h72.192v-118.272c116.736 0 232.96-0.512 349.184 0 19.968-1.024 41.984 0 58.88-12.288 13.312-21.504 10.24-48.128 11.264-72.192-1.024-222.208 1.024-444.416-1.024-667.136z m-680.96 398.336c-26.624 13.824-56.832 12.288-85.504 10.752v139.776L187.392 696.32c-2.048-126.976-2.048-254.464-0.512-381.952 62.976 3.072 139.776-25.6 192.512 23.04 50.176 62.464 36.864 176.64-37.376 214.016z m646.656 317.952h-384v-95.232h279.04v-47.616h-279.04v-60.416h279.04v-47.104h-279.04v-70.144c46.08 14.336 98.816 14.336 139.776-14.336 44.544-27.136 67.584-78.848 71.68-130.048h-153.088c0-51.712 0.512-103.424-1.024-155.136-18.944 3.584-38.4 7.68-57.344 12.288V142.848h384v726.528z" fill="#D24625" p-id="18077"></path><path d="M256 378.88c23.04-1.024 51.2-5.12 66.56 16.896 12.8 24.576 13.312 53.248 1.536 78.336-13.312 24.064-43.008 22.016-66.56 25.088-2.56-40.448-2.048-80.384-1.536-120.32z" fill="#D24625" p-id="18078"></path></svg>