<?xml version="1.0" standalone="no"?><!DOCTYPE svg PUBLIC "-//W3C//DTD SVG 1.1//EN" "http://www.w3.org/Graphics/SVG/1.1/DTD/svg11.dtd"><svg t="1663732226132" class="icon" viewBox="0 0 1024 1024" version="1.1" xmlns="http://www.w3.org/2000/svg" p-id="18485" xmlns:xlink="http://www.w3.org/1999/xlink" width="200" height="200"><path d="M960 204.9792z m-19.712 798.976A68.6336 68.6336 0 0 1 892.16 1024H130.304A67.9936 67.9936 0 0 1 64 954.368V68.8128A68.544 68.544 0 0 1 131.968 0.064h624.64L960 204.9408v751.0272a67.5072 67.5072 0 0 1-19.712 47.9872zM685.312 537.92a465.3696 465.3696 0 0 0-89.088 10.24 435.2 435.2 0 0 1-87.808-116.5824c23.936-81.7792 25.344-137.1392 7.04-163.3024a45.9904 45.9904 0 0 0-36.736-19.008 44.8768 44.8768 0 0 0-43.776 23.3856c-25.344 43.7632 11.392 129.7536 28.288 164.736a1051.9296 1051.9296 0 0 1-75.008 180.736c-134.4 59.776-137.088 96.1792-137.088 109.3376a42.9952 42.9952 0 0 0 23.808 39.3728 37.184 37.184 0 0 0 21.376 5.8496c35.328 0 76.416-40.832 120.192-120.9984a995.7248 995.7248 0 0 1 168.32-55.3472 177.5232 177.5232 0 0 0 104.704 43.7632c23.936 0 70.528 0 70.656-49.7664 1.408-18.7904-8.448-50.9952-74.88-52.416z m1.408 56.8192a115.8016 115.8016 0 0 1-42.368-11.6352 151.1936 151.1936 0 0 1 36.608-2.9952c28.288 0 33.92 7.424 34.176 11.6224a61.2864 61.2864 0 0 1-28.416 3.008z m-143.104-30.1184a857.9968 857.9968 0 0 0-96.256 29.2608v-3.008l-2.816 1.3952q23.424-48.8192 42.624-99.4688l1.408 1.5744 1.28-3.008a473.2928 473.2928 0 0 0 56.576 71.8208h-4.224z m-71.936-266.9184a8.5888 8.5888 0 0 1 5.632-1.3824h4.096a127.5008 127.5008 0 0 1-1.152 75.776 122.2016 122.2016 0 0 1-8.576-74.3936zM297.216 726.0288l-4.992 1.6512a132.8768 132.8768 0 0 1 60.416-50.0224 109.056 109.056 0 0 1-55.424 48.3712z" fill="#FF3F3F" p-id="18486"></path><path d="M958.208 205.0432H824.576a67.9552 67.9552 0 0 1-67.712-68.1728V0z m0 0" fill="#FFFFFF" p-id="18487"></path></svg>