<?xml version="1.0" standalone="no"?><!DOCTYPE svg PUBLIC "-//W3C//DTD SVG 1.1//EN" "http://www.w3.org/Graphics/SVG/1.1/DTD/svg11.dtd"><svg t="1661156725341" class="icon" viewBox="0 0 1024 1024" version="1.1" xmlns="http://www.w3.org/2000/svg" p-id="21406" xmlns:xlink="http://www.w3.org/1999/xlink" width="200" height="200"><defs><style type="text/css">@font-face { font-family: feedback-iconfont; src: url("//at.alicdn.com/t/font_1031158_u69w8yhxdu.woff2?t=1630033759944") format("woff2"), url("//at.alicdn.com/t/font_1031158_u69w8yhxdu.woff?t=1630033759944") format("woff"), url("//at.alicdn.com/t/font_1031158_u69w8yhxdu.ttf?t=1630033759944") format("truetype"); }
</style></defs><path d="M512 45.511111c257.137778 0 466.488889 209.351111 466.488889 466.488889S769.137778 978.488889 512 978.488889 45.511111 769.137778 45.511111 512 254.862222 45.511111 512 45.511111m0-45.511111C228.693333 0 0 229.831111 0 512s228.693333 512 512 512 512-228.693333 512-512S795.306667 0 512 0z" p-id="21407"></path><path d="M512 864.711111c-12.515556 0-23.893333-1.137778-36.408889-2.275555l2.275556-22.755556c11.377778 1.137778 22.755556 1.137778 34.133333 1.137778 136.533333 0 260.551111-85.333333 308.337778-212.764445l21.617778 9.102223c-51.2 136.533333-184.32 227.555556-329.955556 227.555555zM182.044444 512h-22.755555c0-194.56 158.151111-352.711111 352.711111-352.711111 59.164444 0 117.191111 14.791111 168.391111 42.097778l-11.377778 20.48c-47.786667-26.168889-102.4-39.822222-157.013333-39.822223-182.044444 0-329.955556 147.911111-329.955556 329.955556z"  p-id="21408"></path></svg>